# xmcd
#
# Track frame offsets: 
#        150
#        23400
#        40650
#        57300
#
# Disc length: 1067 seconds
#
# Revision: 4
# Processed by: cddbd v1.5.2PL0 Copyright (c) Steve Scherf et al.
# Submitted via: ExactAudioCopyFreeDBPlugin 1.0
#
DISCID=24042904
DTITLE=ANNA TSUCHIYA inspi' NANA(BLACK STONES) - 黒い涙
DYEAR=2007
DGENRE=Ballad
TTITLE0=黒い涙
TTITLE1=JUST CAN'T GET ENOUGH
TTITLE2=I'm addicted to you
TTITLE3=黒い涙 ～deep sadness version～
EXTD=YEAR: 2007
EXTT0=
EXTT1=
EXTT2=
EXTT3=
PLAYORDER=
